<?xml version="1.0" encoding="utf-8"?>
<!-- Generator: Adobe Illustrator 19.0.0, SVG Export Plug-In . SVG Version: 6.00 Build 0)  -->
<svg version="1.1" id="Layer_1" xmlns="http://www.w3.org/2000/svg" xmlns:xlink="http://www.w3.org/1999/xlink" x="0px" y="0px"
	 viewBox="-442 265 74 32" style="enable-background:new -442 265 74 32;" xml:space="preserve">
<style type="text/css">
	.st0{fill:#FFFFFF;}
	.st1{fill:none;stroke:#FFFFFF;stroke-width:0.5;stroke-miterlimit:10;}
</style>
<g id="Layer_2">
</g>
<g id="Layer_1_1_">
	<g>
		<path id="SVGID_1_" class="st0" d="M-437.7,295.9h19v1.1H-440l19-23.1h-19v-1h21.2L-437.7,295.9z"/>
	</g>
	<g>
		<path id="SVGID_2_" class="st0" d="M-415.8,266.9c0.7,0,1.1,0.4,1.1,1.1c0,0.7-0.4,1.1-1.1,1.1c-0.7,0-1.1-0.4-1.1-1.1
			S-416.5,266.9-415.8,266.9z M-415.2,297h-1.1v-24.1h1.1V297z"/>
	</g>
	<g>
		<path id="SVGID_3_" class="st0" d="M-390,282c0-4.4-4.2-7.9-9.5-7.9c-4.8,0-9,3.5-9,8.5V297h-1.1v-24.1h1.1v5.1
			c0.5-0.9,1.1-1.7,1.8-2.3c1.9-1.7,4.4-2.6,7.2-2.6c2.8,0,5.4,0.9,7.4,2.6c1.2,1,2.1,2.2,2.6,3.6c0.4-1.3,1.3-2.6,2.4-3.6
			c1.9-1.7,4.4-2.6,7.2-2.6c2.8,0,5.4,0.9,7.4,2.6c2,1.7,3.1,3.9,3.1,6.3V297h-1v-15c0-4.4-4.2-7.9-9.4-7.9c-5,0-8.9,3.3-9.1,7.9
			V297h-1L-390,282L-390,282z"/>
	</g>
	<g>
		<g>
			<defs>
				<polygon id="SVGID_7_" points="-437.7,295.9 -418.8,295.9 -418.8,297 -440,297 -421,273.9 -440,273.9 -440,272.9 -418.8,272.9 
									"/>
			</defs>
			<clipPath id="SVGID_8_">
				<use xlink:href="#SVGID_7_"  style="overflow:visible;"/>
			</clipPath>
		</g>
	</g>
	<g>
		<path id="SVGID_4_" class="st1" d="M-437.7,295.9h19v1.1H-440l19-23.1h-19v-1h21.2L-437.7,295.9z"/>
	</g>
	<g>
		<path id="SVGID_5_" class="st1" d="M-415.8,266.9c0.7,0,1.1,0.4,1.1,1.1c0,0.7-0.4,1.1-1.1,1.1c-0.7,0-1.1-0.4-1.1-1.1
			S-416.5,266.9-415.8,266.9z M-415.2,297h-1.1v-24.1h1.1V297z"/>
	</g>
	<g>
		<path id="SVGID_6_" class="st1" d="M-390,282c0-4.4-4.2-7.9-9.5-7.9c-4.8,0-9,3.5-9,8.5V297h-1.1v-24.1h1.1v5.1
			c0.5-0.9,1.1-1.7,1.8-2.3c1.9-1.7,4.4-2.6,7.2-2.6c2.8,0,5.4,0.9,7.4,2.6c1.2,1,2.1,2.2,2.6,3.6c0.4-1.3,1.3-2.6,2.4-3.6
			c1.9-1.7,4.4-2.6,7.2-2.6c2.8,0,5.4,0.9,7.4,2.6c2,1.7,3.1,3.9,3.1,6.3V297h-1v-15c0-4.4-4.2-7.9-9.4-7.9c-5,0-8.9,3.3-9.1,7.9
			V297h-1L-390,282L-390,282z"/>
	</g>
</g>
</svg>
