<?xml version="1.0" encoding="utf-8"?>
<!-- Generator: Adobe Illustrator 19.0.0, SVG Export Plug-In . SVG Version: 6.00 Build 0)  -->
<svg version="1.1" id="Layer_1" xmlns="http://www.w3.org/2000/svg" xmlns:xlink="http://www.w3.org/1999/xlink" x="0px" y="0px"
	 viewBox="-442 265 74 32" style="enable-background:new -442 265 74 32;" xml:space="preserve">
<style type="text/css">
	.st0{fill:#FFFFFF;}
	.st1{opacity:0.9;}
	.st2{clip-path:url(#SVGID_2_);fill:#FFFFFF;}
	.st3{opacity:0.68;}
	.st4{clip-path:url(#SVGID_4_);fill:#FFFFFF;}
	.st5{clip-path:url(#SVGID_6_);fill:#FFFFFF;}
</style>
<g>
	<g>
		<g>
			<path class="st0" d="M-406.9,271.5v18.4h2.1v4.9h-9.1v-4.9h2.1v-18.4h-2.1v-4.9h2.1v-0.1h4.9v0.1h2.1v4.9H-406.9z"/>
			<path class="st0" d="M-371,275v19.7h-4.9V275c0-2-1.6-3.6-3.6-3.6c-2,0-3.6,1.6-3.6,3.6v19.7h-4.9V275c0-2-1.6-3.6-3.6-3.6
				c-2,0-3.6,1.6-3.6,3.6v19.7h-4.9v-23.3h-2.3v-4.9h2.4c1.3,0,2.6,0.5,3.5,1.5c3.4-2.4,8-2,10.9,1c1.6-1.6,3.8-2.5,6-2.5
				C-374.8,266.5-371,270.3-371,275z"/>
		</g>
		<polygon class="st0" points="-438.3,271.5 -438.3,271.5 -434.7,273.1 -434.7,271.5 		"/>
		<polygon class="st0" points="-417.2,289.8 -417.2,289.8 -420.8,288.1 -420.8,289.8 		"/>
		<path class="st0" d="M-439.3,289.8"/>
		<g class="st1">
			<g>
				<defs>
					<rect id="SVGID_1_" x="-433.2" y="289.8" width="16" height="4.8"/>
				</defs>
				<clipPath id="SVGID_2_">
					<use xlink:href="#SVGID_1_"  style="overflow:visible;"/>
				</clipPath>
				<path class="st2" d="M-432.9,294.6C-432.9,294.6-432.9,294.6-432.9,294.6L-432.9,294.6l14.6,0v0h1.1v-4.8h-8.8v0h-6.9
					C-432.9,289.8-433.6,292.2-432.9,294.6"/>
			</g>
		</g>
		<g class="st3">
			<g>
				<defs>
					<rect id="SVGID_3_" x="-439.4" y="289.8" width="6.5" height="4.8"/>
				</defs>
				<clipPath id="SVGID_4_">
					<use xlink:href="#SVGID_3_"  style="overflow:visible;"/>
				</clipPath>
				<path class="st4" d="M-439.4,290.7v3.9c0,0,5,0,6.5,0c0,0,0,0,0,0c-0.7-2.4,0-4.8,0-4.8h-6.4
					C-439.4,290.3-439.4,290.7-439.4,290.7"/>
			</g>
		</g>
		<path class="st0" d="M-417.3,266.7h-6.4c1.1,3.3,0,4.8,0,4.8h6.4c0-0.2,0.1-0.4,0.1-0.6c0-0.1,0-0.3,0-0.4L-417.3,266.7
			L-417.3,266.7z"/>
		<g class="st1">
			<g>
				<path class="st0" d="M-425.1,273.7c-1.5,1.8-3.8,3.9-5.8,5.8c-3.1,2.9-6.1,5.6-7.6,8.2l0,0c-0.5,0.7-0.7,1.5-0.8,2.1h0
					c-0.1,0.6-0.1,1-0.1,1v3.9c0,0,5,0,6.5,0c0,0,0,0,0,0c-0.7-2.3-0.1-4.6,0-4.8h0c1-1.9,4.2-4.9,6.7-7.2c3-2.8,6-5.5,7.6-8.1
					c0,0,0,0,0,0c0.3-0.4,0.5-0.8,0.6-1.2c0.3-0.6,0.5-1.2,0.6-1.8h-6.4L-425.1,273.7z"/>
			</g>
		</g>
		<g class="st1">
			<g>
				<defs>
					<rect id="SVGID_5_" x="-438.3" y="266.7" width="21.2" height="4.8"/>
				</defs>
				<clipPath id="SVGID_6_">
					<use xlink:href="#SVGID_5_"  style="overflow:visible;"/>
				</clipPath>
				<path class="st5" d="M-417.3,266.7h-6.4h-14.7v4.8h14.7h6.4c0-0.2,0.1-0.4,0.1-0.6c0-0.1,0-0.3,0-0.4L-417.3,266.7L-417.3,266.7
					z"/>
			</g>
		</g>
	</g>
</g>
</svg>
