<?xml version="1.0" encoding="utf-8"?>
<!-- Generator: Adobe Illustrator 16.0.2, SVG Export Plug-In . SVG Version: 6.00 Build 0)  -->
<!DOCTYPE svg PUBLIC "-//W3C//DTD SVG 1.1//EN" "http://www.w3.org/Graphics/SVG/1.1/DTD/svg11.dtd">
<svg version="1.1" id="Layer_1" xmlns="http://www.w3.org/2000/svg" xmlns:xlink="http://www.w3.org/1999/xlink" x="0px" y="0px"
	 width="48px" height="48px" viewBox="0 0 48 48" enable-background="new 0 0 48 48" xml:space="preserve">
<path d="M25.275,2C16.003,2,8.485,9.518,8.485,18.791c0,9.916,16.792,29.066,16.792,29.066S42.07,29.443,42.07,18.791
	C42.068,9.518,34.551,2,25.275,2z M25.275,28.438c-5.707,0-10.333-4.626-10.333-10.333S19.569,7.771,25.275,7.771
	c5.709,0,10.334,4.627,10.334,10.333C35.609,23.811,30.984,28.438,25.275,28.438z"/>
<circle cx="25.426" cy="17.966" r="10.805"/>
<g id="Layer_1_1_">
	<g>
		<path id="SVGID_1_" fill="#FFFFFF" d="M11.891,23.183h7.514v0.421h-8.418l7.53-9.151h-7.53v-0.405h8.418L11.891,23.183z"/>
	</g>
	<g>
		<path id="SVGID_2_" fill="#FFFFFF" d="M20.604,11.677c0.296,0,0.437,0.141,0.437,0.422c0,0.281-0.14,0.42-0.437,0.42
			c-0.28,0-0.421-0.14-0.421-0.42C20.183,11.817,20.324,11.677,20.604,11.677z M20.808,23.604h-0.421v-9.557h0.421V23.604z"/>
	</g>
	<g>
		<path id="SVGID_3_" fill="#FFFFFF" d="M30.8,17.648c0-1.731-1.684-3.133-3.757-3.133c-1.917,0-3.585,1.387-3.585,3.382v5.706
			h-0.422v-9.556h0.422v2.011c0.188-0.343,0.421-0.655,0.732-0.92c0.749-0.654,1.762-1.029,2.853-1.029
			c1.106,0,2.136,0.374,2.914,1.029c0.484,0.405,0.827,0.889,1.03,1.418c0.173-0.529,0.499-1.014,0.95-1.418
			c0.749-0.654,1.762-1.029,2.854-1.029c1.106,0,2.136,0.374,2.915,1.029c0.794,0.67,1.231,1.544,1.231,2.495v5.97h-0.406v-5.954
			c0-1.731-1.668-3.133-3.74-3.133c-1.964,0-3.54,1.309-3.602,3.118v5.97H30.8V17.648L30.8,17.648z"/>
	</g>
	<g>
		<g>
			<defs>
				<polygon id="SVGID_7_" points="11.891,23.183 19.405,23.183 19.405,23.604 10.986,23.604 18.516,14.452 10.986,14.452 
					10.986,14.047 19.405,14.047 				"/>
			</defs>
			<clipPath id="SVGID_8_">
				<use xlink:href="#SVGID_7_"  overflow="visible"/>
			</clipPath>
		</g>
	</g>
	<g>
		<path id="SVGID_4_" fill="none" stroke="#FFFFFF" stroke-width="0.5" stroke-miterlimit="10" d="M11.891,23.183h7.514v0.421
			h-8.418l7.53-9.151h-7.53v-0.405h8.418L11.891,23.183z"/>
	</g>
	<g>
		<path id="SVGID_5_" fill="none" stroke="#FFFFFF" stroke-width="0.5" stroke-miterlimit="10" d="M20.604,11.677
			c0.296,0,0.437,0.141,0.437,0.422c0,0.281-0.14,0.42-0.437,0.42c-0.28,0-0.421-0.14-0.421-0.42
			C20.183,11.817,20.324,11.677,20.604,11.677z M20.808,23.604h-0.421v-9.557h0.421V23.604z"/>
	</g>
	<g>
		<path id="SVGID_6_" fill="none" stroke="#FFFFFF" stroke-width="0.5" stroke-miterlimit="10" d="M30.8,17.648
			c0-1.731-1.684-3.133-3.757-3.133c-1.917,0-3.585,1.387-3.585,3.382v5.706h-0.422v-9.556h0.422v2.011
			c0.188-0.343,0.421-0.655,0.732-0.92c0.749-0.654,1.762-1.029,2.853-1.029c1.106,0,2.136,0.374,2.914,1.029
			c0.484,0.405,0.827,0.889,1.03,1.418c0.173-0.529,0.499-1.014,0.95-1.418c0.749-0.654,1.762-1.029,2.854-1.029
			c1.106,0,2.136,0.374,2.915,1.029c0.794,0.67,1.231,1.544,1.231,2.495v5.97h-0.406v-5.954c0-1.731-1.668-3.133-3.74-3.133
			c-1.964,0-3.54,1.309-3.602,3.118v5.97H30.8V17.648L30.8,17.648z"/>
	</g>
</g>
</svg>
