<?xml version="1.0" encoding="utf-8"?>
<!-- Generator: Adobe Illustrator 16.0.2, SVG Export Plug-In . SVG Version: 6.00 Build 0)  -->
<!DOCTYPE svg PUBLIC "-//W3C//DTD SVG 1.1//EN" "http://www.w3.org/Graphics/SVG/1.1/DTD/svg11.dtd">
<svg version="1.1" id="Layer_1" xmlns="http://www.w3.org/2000/svg" xmlns:xlink="http://www.w3.org/1999/xlink" x="0px" y="0px"
	 width="80px" height="15px" viewBox="0 0 80 15" enable-background="new 0 0 80 15" xml:space="preserve">
<polygon fill="#FFFFFF" points="8,0.164 9.82,5.768 15.714,5.768 10.946,9.232 12.767,14.836 8,11.373 3.233,14.836 5.054,9.232 
	0.286,5.768 6.179,5.768 "/>
<polygon fill="#FFFFFF" points="24,0.164 25.82,5.769 31.714,5.769 26.946,9.232 28.767,14.836 24,11.373 19.233,14.836 
	21.054,9.232 16.286,5.769 22.179,5.769 "/>
<polygon fill="#FFFFFF" points="40,0.165 41.82,5.769 47.713,5.769 42.945,9.232 44.766,14.836 40,11.373 35.234,14.836 
	37.054,9.232 32.287,5.769 38.179,5.769 "/>
<polygon fill="#FFFFFF" points="56,0.164 57.82,5.769 63.714,5.769 58.945,9.232 60.768,14.836 56,11.373 51.232,14.836 
	53.055,9.232 48.286,5.769 54.18,5.769 "/>
<polygon fill="#FFFFFF" points="72,0.164 73.82,5.769 79.714,5.769 74.945,9.232 76.768,14.836 72,11.373 67.232,14.836 
	69.055,9.232 64.286,5.769 70.18,5.769 "/>
</svg>
