<?xml version="1.0" encoding="utf-8"?>
<!-- Generator: Adobe Illustrator 16.0.2, SVG Export Plug-In . SVG Version: 6.00 Build 0)  -->
<!DOCTYPE svg PUBLIC "-//W3C//DTD SVG 1.1//EN" "http://www.w3.org/Graphics/SVG/1.1/DTD/svg11.dtd">
<svg version="1.1" id="Layer_1" xmlns="http://www.w3.org/2000/svg" xmlns:xlink="http://www.w3.org/1999/xlink" x="0px" y="0px"
	 width="512px" height="512px" viewBox="0 0 512 512" enable-background="new 0 0 512 512" xml:space="preserve">
<g>
	<path fill="#FFFFFF" d="M357.275,125.525c-2.209-3.986-9.498-11.837-13.977-13.325c-5.979-0.921-2.398,4.413-2.398,6.7
		c-1.543,1.157-3.94,2.454-5.102,4c-0.699,0.6,1.704,6.103,6.337,4.335s1.964,1.799,5.164,8.865
		c3.199,7.066,9.606,7.207,12.489,5.067C363.444,138.455,359.285,129.155,357.275,125.525z"/>
	<path fill="#FFFFFF" d="M375.8,170.6c-0.001,0.006-0.004,0.011-0.005,0.017C375.795,170.629,375.797,170.629,375.8,170.6z"/>
	<path fill="#FFFFFF" d="M434.6,197.1C435,197.1,432.8,196.7,434.6,197.1L434.6,197.1z"/>
	<path fill="#FFFFFF" d="M256,32C132.3,32,32,132.3,32,256c0,123.701,100.3,224,224,224s224-100.299,224-224
		C480,132.3,379.7,32,256,32z M173.399,429.424c-5.515-3.133-9.374-7.56-10.961-15.929c-3.946-20.808-0.303-32.067,17.962-44.245
		c8.604-5.736,10.022-12.672,16.9-19.55c1.685-2.14,6.211-10.374,9.2-10.8c3.637-0.779,13.709-2.527,15.7-6.5
		c3.789-5.146,12.127-27.398,15.8-29.603c5.997-3.925,14.419-15.96,8.3-23.1c-7.021-8.644-16.799-8.767-25.9-13.302
		c-8.015-4.008-11.573-22.28-17.699-28.601c-11.912-12.136-29.999-19.199-45-26.7c-8.116-3.25-7.345-4.256-13.7,2.1
		c-8.162,8.162-20.093-2.067-21.3-10.5c-0.091-2.802-3.297-18.216-1.4-19.4c17.956-11.225-8.328-8.64-10.5-13.8
		c-5.355-14.993,13.008-26.86,25.4-28.1c13.885-1.738,16.783,21.895,22.1,19.9c2.556-1.276,2.566-12.394,2.9-14.8
		c1.267-8.029,3.588-9.273,11.399-12.175c9.098-3.379,16.063-7.617,25.7-9.225c11.006-3.195,20.317-1.533,28.8-8.6
		c3.888-2.915,6.704,1.58,10.4,2.4c7.999,1.599,9.7-11.1,9.7-15.9c-0.034-4.665,1.265-8.63-4.7-13.6
		c-7.807-6.069-19.029-0.869-25.3,5.4c-7.574,7.035-16.357,6.55-13.801-5.6c0.635-4.433,10.209-9.587,14-12
		c3.7-2.222,5.904,2.522,10.4,1.4c6.579-1.463,9.034,4.735,16.8,4.8c3.233-0.731,14.796-6.881,8.614-19.366
		C254.143,64.021,255.07,64,256,64c1.854,0,3.707,0.034,5.555,0.086C264.36,72.967,255.59,80.529,260,91.7
		c8.79,21.475,15.992,3.014,24.7-7c2.849-2.849,4.633-2.211,9.3-3.1c2.896-0.483,7.055-9.27,8.393-11.982
		c20.058,4.956,39.121,13.127,56.567,24.255c-7.447,0.792-9.349-1.396-9.234,7.377c0.042,3.317,0.297,13.319,5.274,14.15
		c8.276,0.975,6.78,6.832,14.551,7.85c7.442,0.976,2.815,7.553,5.851,14.05c3.394,10.227-19.806,13.302-24.302,14.8
		c-13.64,4.554,6.34,24.41,15.2,22.3c2.816-0.704,12.215-1.902,12.867-5.067c-0.012-0.323-1.837-11.012-0.867-12.233
		c1.532-1.934,5.123-2.946,10.775,0.255c13.374,7.573,20.146,25.7,35.897,29.295c2.146,0.489,5.859-0.15,8.494,2.033
		c2.23,3.015,7.92,8.416,1.131,8.416c-9.018-2.003-13.78,0.859-21.198-4.874c-7.732-5.977-12.543-10.891-22.75-11.076
		c-8.79-0.159-16.68-3.819-25.738-2.35c-5.05,0.819-10.038,2.811-14.911,4.3c-4.617,1.538-5.511,9.765-10.2,10.7
		c-19.468,4.581-15.262,23.169-18.773,37.913c-1.351,5.662-6.024,21.003-0.926,26.087c9.12,8.854,19.783,21.035,33.176,22.963
		c7.206,1.037,22.954-4.576,27.823,2.737c2.062,4.104,7.447-3.03,8.9,0.601c3.662,10.988-4.264,18.187-4.338,28.551
		c-0.109,15.203,9.179,20.57-3.263,34.148c-13.642,13.607-4.333,30.788-11.899,47c-4.043,8.338-4.809,19.895-10.872,23.777
		c-13.321,8.532-27.7,15.398-42.715,20.384c-26.626,8.838-55.154,11.672-83.017,8.456c-14.619-1.688-29.041-5.057-42.88-10.065
		c-3.769-1.362-7.28-2.505-10.472-3.703C178.143,431.619,175.759,430.55,173.399,429.424z M131.699,402.329
		c-0.469-0.397-0.936-0.796-1.399-1.198c-3.444-2.992-6.802-6.113-10.06-9.371c-3.389-3.388-6.635-6.881-9.734-10.471
		c-0.035-0.041-0.07-0.082-0.105-0.123c-0.637-0.738-1.257-1.486-1.882-2.234C56.834,316.471,49.259,225.004,92.6,155.1
		c6.078,6.078-4.101,18.024,7.5,26c5.124,3.606,10.021,2.159,9,8.8c-0.993,6.449,5.355,6.335,6.3,12
		c2.843,12.429,19.207,18.642,9.9,32.6c-9.118,12.625-16.992,26.729-10.1,42.8c2.254,5.86,7.919,11.858,12.222,16.244
		c7.813,7.966,7.377,3.188,7.377,13.256c-0.156,4.373,5.261,8.897,4.7,11.7c-1.001,8.011-2.904,15.93-3.9,23.9
		c-1.792,28.638-0.129,56.662,21.3,78.1c-7.969-4.807-15.636-10.249-22.968-16.29C133.183,403.591,132.44,402.961,131.699,402.329z"
		/>
</g>
</svg>
